<svg width="20" height="20" viewBox="0 0 20 20" fill="none" xmlns="http://www.w3.org/2000/svg">
<path d="M10 0.230713C4.477 0.230713 0 4.71471 0 10.2477C0 14.6727 2.865 18.4277 6.839 19.7517C7.339 19.8437 7.521 19.5347 7.521 19.2687C7.521 19.0317 7.513 18.4007 7.508 17.5657C4.726 18.1707 4.139 16.2227 4.139 16.2227C3.685 15.0647 3.029 14.7567 3.029 14.7567C2.121 14.1367 3.098 14.1487 3.098 14.1487C4.101 14.2187 4.629 15.1807 4.629 15.1807C5.521 16.7107 6.97 16.2687 7.539 16.0127C7.631 15.3657 7.889 14.9247 8.175 14.6747C5.955 14.4217 3.62 13.5617 3.62 9.72371C3.62 8.63071 4.01 7.73571 4.649 7.03571C4.546 6.78271 4.203 5.76371 4.747 4.38571C4.747 4.38571 5.587 4.11571 7.497 5.41171C8.31277 5.18923 9.15444 5.07591 10 5.07471C10.8459 5.07612 11.6878 5.18944 12.504 5.41171C14.413 4.11571 15.251 4.38471 15.251 4.38471C15.797 5.76371 15.453 6.78271 15.351 7.03571C15.991 7.73571 16.379 8.63071 16.379 9.72371C16.379 13.5717 14.04 14.4187 11.813 14.6667C12.172 14.9757 12.491 15.5867 12.491 16.5217C12.491 17.8597 12.479 18.9407 12.479 19.2687C12.479 19.5367 12.659 19.8487 13.167 19.7507C15.1582 19.0827 16.8892 17.8059 18.1153 16.1006C19.3414 14.3954 20.0007 12.348 20 10.2477C20 4.71471 15.522 0.230713 10 0.230713Z" fill="#8C8C8C"/>
</svg>
