<svg width="49" height="26" viewBox="0 0 49 26" fill="none" xmlns="http://www.w3.org/2000/svg">
<g clip-path="url(#clip0_601_10451)">
<path d="M11.0168 5.90259C8.39521 5.90259 6.37288 6.80141 4.94974 8.6365V0.298584H0.118591V25.1523H4.94974V22.9427C6.37288 24.7779 8.39521 25.6766 11.0168 25.6766C13.526 25.6766 15.6981 24.7029 17.4958 22.7929C19.256 20.883 20.1548 18.561 20.1548 15.7896C20.1548 13.0182 19.256 10.6588 17.4958 8.74884C15.6981 6.83886 13.526 5.90259 11.0168 5.90259ZM6.41032 19.5721C5.4366 18.5984 4.94974 17.3251 4.94974 15.7896C4.94974 14.2541 5.4366 12.9808 6.41032 11.9696C7.38405 10.9959 8.61993 10.509 10.118 10.509C11.616 10.509 12.8519 10.9959 13.863 11.9696C14.8368 12.9808 15.3236 14.2541 15.3236 15.7896C15.3236 17.3251 14.8368 18.5984 13.863 19.5721C12.8519 20.5833 11.616 21.0701 10.118 21.0701C8.61993 21.0701 7.38405 20.5833 6.41032 19.5721Z" fill="url(#paint0_linear_601_10451)"/>
<path d="M30.6445 8.48C29.1839 6.64491 27.1615 5.74609 24.54 5.74609C22.0309 5.74609 19.8961 6.68237 18.136 8.59235C16.3383 10.5023 15.4395 12.8618 15.4395 15.6331C15.4395 18.4045 16.3383 20.7265 18.136 22.6365C19.8961 24.5464 22.0309 25.5201 24.54 25.5201C27.1615 25.5201 29.1839 24.6212 30.6445 22.7862V24.9958H35.4757V6.27041H30.6445V8.48ZM21.7312 19.4156C20.7574 18.4419 20.2706 17.1686 20.2706 15.6331C20.2706 14.0976 20.7574 12.8243 21.7312 11.8131C22.7049 10.8394 23.9409 10.3525 25.4389 10.3525C26.9369 10.3525 28.1728 10.8394 29.1839 11.8131C30.1575 12.8243 30.6445 14.0976 30.6445 15.6331C30.6445 17.1686 30.1575 18.4419 29.1839 19.4156C28.1728 20.4269 26.9369 20.9136 25.4389 20.9136C23.9409 20.9136 22.7049 20.4269 21.7312 19.4156Z" fill="url(#paint1_linear_601_10451)"/>
<path d="M41.0745 5.90259C38.5278 5.90259 36.6553 6.76395 35.4943 8.52414V0.298584H30.6631V25.1523H35.4943V15.0406C35.4943 13.5051 35.8687 12.3441 36.6177 11.5577C37.3669 10.7712 38.3779 10.3967 39.6139 10.3967C40.7373 10.3967 41.6362 10.7337 42.3102 11.3704C42.9845 12.0445 43.3215 13.0182 43.3215 14.2541V25.1523H48.1527V13.6549C48.1527 11.2206 47.4785 9.34806 46.1678 7.96238C44.8195 6.57671 43.1342 5.90259 41.0745 5.90259Z" fill="url(#paint2_linear_601_10451)"/>
</g>
<defs>
<linearGradient id="paint0_linear_601_10451" x1="10.1367" y1="-0.382337" x2="53.3829" y2="15.9177" gradientUnits="userSpaceOnUse">
<stop stop-color="white"/>
<stop offset="1" stop-color="white" stop-opacity="0"/>
</linearGradient>
<linearGradient id="paint1_linear_601_10451" x1="25.4575" y1="5.74609" x2="65.0734" y2="25.4237" gradientUnits="userSpaceOnUse">
<stop stop-color="white"/>
<stop offset="1" stop-color="white" stop-opacity="0"/>
</linearGradient>
<linearGradient id="paint2_linear_601_10451" x1="39.4078" y1="-0.382339" x2="78.1524" y2="12.6265" gradientUnits="userSpaceOnUse">
<stop stop-color="white"/>
<stop offset="1" stop-color="white" stop-opacity="0"/>
</linearGradient>
<clipPath id="clip0_601_10451">
<rect width="48.2149" height="25.46" fill="white" transform="translate(0 0.27002)"/>
</clipPath>
</defs>
</svg>
