<svg width="20" height="18" viewBox="0 0 20 18" fill="none" xmlns="http://www.w3.org/2000/svg">
<path d="M6.29 17.1267C13.837 17.1267 17.965 10.8737 17.965 5.45169C17.965 5.27369 17.965 5.09669 17.953 4.92169C18.7562 4.34022 19.4493 3.6203 20 2.79569C19.2511 3.12769 18.4566 3.34545 17.643 3.44169C18.4996 2.92875 19.1408 2.12204 19.447 1.17169C18.6417 1.64958 17.7607 1.98642 16.842 2.16769C16.2234 1.50945 15.405 1.07352 14.5136 0.927394C13.6222 0.781265 12.7075 0.933088 11.9111 1.35936C11.1147 1.78563 10.4811 2.46256 10.1083 3.28535C9.7355 4.10814 9.64437 5.03087 9.849 5.91069C8.21759 5.82893 6.6216 5.40501 5.16465 4.66646C3.70769 3.9279 2.42233 2.89121 1.392 1.62369C0.867318 2.52689 0.706589 3.59611 0.942536 4.61365C1.17848 5.6312 1.79337 6.52057 2.662 7.10069C2.00926 7.08175 1.37065 6.90615 0.8 6.58869V6.64069C0.800389 7.58799 1.1284 8.50599 1.7284 9.23905C2.3284 9.9721 3.16347 10.4751 4.092 10.6627C3.48782 10.8275 2.85389 10.8514 2.239 10.7327C2.50116 11.5482 3.01168 12.2613 3.69913 12.7723C4.38658 13.2833 5.21657 13.5667 6.073 13.5827C5.22212 14.2513 4.24779 14.7455 3.20573 15.0372C2.16367 15.3289 1.07432 15.4123 0 15.2827C1.87658 16.4871 4.06018 17.1258 6.29 17.1227" fill="#8C8C8C"/>
</svg>
