<svg width="202" height="26" viewBox="0 0 202 26" fill="none" xmlns="http://www.w3.org/2000/svg">
<g clip-path="url(#clip0_605_10521)">
<path d="M11.0168 5.90259C8.39521 5.90259 6.37288 6.80141 4.94974 8.6365V0.298584H0.118591V25.1523H4.94974V22.9427C6.37288 24.7779 8.39521 25.6766 11.0168 25.6766C13.526 25.6766 15.6981 24.7029 17.4958 22.7929C19.256 20.883 20.1548 18.561 20.1548 15.7896C20.1548 13.0182 19.256 10.6588 17.4958 8.74884C15.6981 6.83886 13.526 5.90259 11.0168 5.90259ZM6.41032 19.5721C5.4366 18.5984 4.94974 17.3251 4.94974 15.7896C4.94974 14.2541 5.4366 12.9808 6.41032 11.9696C7.38405 10.9959 8.61993 10.509 10.118 10.509C11.616 10.509 12.8519 10.9959 13.863 11.9696C14.8368 12.9808 15.3236 14.2541 15.3236 15.7896C15.3236 17.3251 14.8368 18.5984 13.863 19.5721C12.8519 20.5833 11.616 21.0701 10.118 21.0701C8.61993 21.0701 7.38405 20.5833 6.41032 19.5721Z" fill="url(#paint0_linear_605_10521)"/>
<path d="M30.6445 8.48C29.1839 6.64491 27.1615 5.74609 24.54 5.74609C22.0309 5.74609 19.8961 6.68237 18.136 8.59235C16.3383 10.5023 15.4395 12.8618 15.4395 15.6331C15.4395 18.4045 16.3383 20.7265 18.136 22.6365C19.8961 24.5464 22.0309 25.5201 24.54 25.5201C27.1615 25.5201 29.1839 24.6212 30.6445 22.7862V24.9958H35.4757V6.27041H30.6445V8.48ZM21.7312 19.4156C20.7574 18.4419 20.2706 17.1686 20.2706 15.6331C20.2706 14.0976 20.7574 12.8243 21.7312 11.8131C22.7049 10.8394 23.9409 10.3525 25.4389 10.3525C26.9369 10.3525 28.1728 10.8394 29.1839 11.8131C30.1575 12.8243 30.6445 14.0976 30.6445 15.6331C30.6445 17.1686 30.1575 18.4419 29.1839 19.4156C28.1728 20.4269 26.9369 20.9136 25.4389 20.9136C23.9409 20.9136 22.7049 20.4269 21.7312 19.4156Z" fill="url(#paint1_linear_605_10521)"/>
<path d="M41.0745 5.90259C38.5278 5.90259 36.6553 6.76395 35.4943 8.52414V0.298584H30.6631V25.1523H35.4943V15.0406C35.4943 13.5051 35.8687 12.3441 36.6177 11.5577C37.3669 10.7712 38.3779 10.3967 39.6139 10.3967C40.7373 10.3967 41.6362 10.7337 42.3102 11.3704C42.9845 12.0445 43.3215 13.0182 43.3215 14.2541V25.1523H48.1527V13.6549C48.1527 11.2206 47.4785 9.34806 46.1678 7.96238C44.8195 6.57671 43.1342 5.90259 41.0745 5.90259Z" fill="url(#paint2_linear_605_10521)"/>
</g>
<path opacity="0.5" d="M59.3189 24.73V15.97H61.0229V24.73H59.3189ZM63.209 24.73V15.97H65.537L67.733 21.202H67.949L70.133 15.97H72.497V24.73H70.805V17.254L71.021 17.278L68.657 22.942H66.917L64.541 17.278L64.769 17.254V24.73H63.209ZM73.7942 24.73L76.7822 15.97H79.5662L82.6382 24.73H80.8862L78.2822 17.134L78.8942 17.398H77.3942L78.0182 17.134L75.4982 24.73H73.7942ZM75.8822 22.402L76.4222 20.962H79.9742L80.5022 22.402H75.8822ZM87.6796 24.958C86.9276 24.958 86.2636 24.834 85.6876 24.586C85.1196 24.33 84.6396 23.99 84.2476 23.566C83.8636 23.134 83.5716 22.65 83.3716 22.114C83.1796 21.57 83.0836 21.006 83.0836 20.422V20.158C83.0836 19.606 83.1796 19.066 83.3716 18.538C83.5636 18.01 83.8436 17.534 84.2116 17.11C84.5876 16.686 85.0476 16.35 85.5916 16.102C86.1436 15.846 86.7756 15.718 87.4876 15.718C88.2556 15.718 88.9356 15.862 89.5276 16.15C90.1196 16.43 90.5956 16.826 90.9556 17.338C91.3156 17.842 91.5276 18.43 91.5916 19.102H89.8756C89.8196 18.726 89.6796 18.406 89.4556 18.142C89.2316 17.87 88.9476 17.662 88.6036 17.518C88.2676 17.374 87.8956 17.302 87.4876 17.302C87.0796 17.302 86.7076 17.374 86.3716 17.518C86.0436 17.662 85.7636 17.866 85.5316 18.13C85.2996 18.394 85.1196 18.71 84.9916 19.078C84.8716 19.446 84.8116 19.854 84.8116 20.302C84.8116 20.79 84.8796 21.226 85.0156 21.61C85.1516 21.994 85.3436 22.322 85.5916 22.594C85.8396 22.858 86.1396 23.062 86.4916 23.206C86.8436 23.342 87.2396 23.41 87.6796 23.41C88.2636 23.41 88.7756 23.29 89.2156 23.05C89.6556 22.802 89.9756 22.482 90.1756 22.09L89.8756 23.47V21.214H91.4476V23.158C91.0716 23.726 90.5596 24.17 89.9116 24.49C89.2636 24.802 88.5196 24.958 87.6796 24.958ZM87.4036 21.55V20.278H92.1796V21.55H87.4036ZM93.584 24.73V15.97H95.252V24.73H93.584ZM95.012 24.73V23.29H98.984V24.73H95.012ZM95.012 20.998V19.558H98.672V20.998H95.012ZM95.012 17.41V15.97H98.888V17.41H95.012ZM107.402 24.958C106.65 24.958 105.986 24.834 105.41 24.586C104.842 24.33 104.362 23.99 103.97 23.566C103.586 23.134 103.294 22.65 103.094 22.114C102.902 21.57 102.806 21.006 102.806 20.422V20.158C102.806 19.606 102.902 19.066 103.094 18.538C103.286 18.01 103.566 17.534 103.934 17.11C104.31 16.686 104.77 16.35 105.314 16.102C105.866 15.846 106.498 15.718 107.21 15.718C107.978 15.718 108.658 15.862 109.25 16.15C109.842 16.43 110.318 16.826 110.678 17.338C111.038 17.842 111.25 18.43 111.314 19.102H109.598C109.542 18.726 109.402 18.406 109.178 18.142C108.954 17.87 108.67 17.662 108.326 17.518C107.99 17.374 107.618 17.302 107.21 17.302C106.802 17.302 106.43 17.374 106.094 17.518C105.766 17.662 105.486 17.866 105.254 18.13C105.022 18.394 104.842 18.71 104.714 19.078C104.594 19.446 104.534 19.854 104.534 20.302C104.534 20.79 104.602 21.226 104.738 21.61C104.874 21.994 105.066 22.322 105.314 22.594C105.562 22.858 105.862 23.062 106.214 23.206C106.566 23.342 106.962 23.41 107.402 23.41C107.986 23.41 108.498 23.29 108.938 23.05C109.378 22.802 109.698 22.482 109.898 22.09L109.598 23.47V21.214H111.17V23.158C110.794 23.726 110.282 24.17 109.634 24.49C108.986 24.802 108.242 24.958 107.402 24.958ZM107.126 21.55V20.278H111.902V21.55H107.126ZM113.307 24.73V15.97H114.975V24.73H113.307ZM114.735 24.73V23.29H118.707V24.73H114.735ZM114.735 20.998V19.558H118.395V20.998H114.735ZM114.735 17.41V15.97H118.611V17.41H114.735ZM120.455 24.73V15.97H123.251L126.935 23.314H127.331L127.091 23.53V15.97H128.699V24.73H125.891L122.207 17.386H121.799L122.039 17.17V24.73H120.455ZM130.861 24.73V15.97H132.529V24.73H130.861ZM132.289 24.73V23.29H136.261V24.73H132.289ZM132.289 20.998V19.558H135.949V20.998H132.289ZM132.289 17.41V15.97H136.165V17.41H132.289ZM138.01 24.73V15.91H139.714V24.73H138.01ZM143.362 24.73L140.674 20.914H142.582L145.354 24.73H143.362ZM139.21 21.802V20.422H141.442C141.754 20.422 142.022 20.358 142.246 20.23C142.478 20.102 142.658 19.922 142.786 19.69C142.914 19.458 142.978 19.194 142.978 18.898C142.978 18.594 142.914 18.326 142.786 18.094C142.658 17.862 142.478 17.682 142.246 17.554C142.022 17.426 141.754 17.362 141.442 17.362H139.21V15.91H141.262C141.966 15.91 142.574 16.014 143.086 16.222C143.606 16.43 144.006 16.746 144.286 17.17C144.566 17.594 144.706 18.126 144.706 18.766V18.958C144.706 19.606 144.562 20.138 144.274 20.554C143.994 20.97 143.598 21.282 143.086 21.49C142.574 21.698 141.966 21.802 141.262 21.802H139.21ZM145.782 24.73L148.77 15.97H151.554L154.626 24.73H152.874L150.27 17.134L150.882 17.398H149.382L150.006 17.134L147.486 24.73H145.782ZM147.87 22.402L148.41 20.962H151.962L152.49 22.402H147.87ZM156.917 24.73V17.23H158.621V24.73H156.917ZM154.385 17.47V15.97H161.153V17.47H154.385ZM166.372 24.958C165.58 24.958 164.892 24.818 164.308 24.538C163.732 24.258 163.252 23.894 162.868 23.446C162.492 22.99 162.208 22.502 162.016 21.982C161.832 21.454 161.74 20.946 161.74 20.458V20.194C161.74 19.658 161.836 19.126 162.028 18.598C162.22 18.062 162.508 17.578 162.892 17.146C163.284 16.714 163.768 16.37 164.344 16.114C164.92 15.85 165.596 15.718 166.372 15.718C167.14 15.718 167.812 15.85 168.388 16.114C168.964 16.37 169.444 16.714 169.828 17.146C170.22 17.578 170.512 18.062 170.704 18.598C170.896 19.126 170.992 19.658 170.992 20.194V20.458C170.992 20.946 170.896 21.454 170.704 21.982C170.52 22.502 170.236 22.99 169.852 23.446C169.476 23.894 168.996 24.258 168.412 24.538C167.836 24.818 167.156 24.958 166.372 24.958ZM166.372 23.374C166.82 23.374 167.22 23.294 167.572 23.134C167.932 22.974 168.236 22.754 168.484 22.474C168.74 22.186 168.932 21.862 169.06 21.502C169.196 21.134 169.264 20.746 169.264 20.338C169.264 19.898 169.196 19.494 169.06 19.126C168.932 18.758 168.74 18.438 168.484 18.166C168.236 17.894 167.932 17.682 167.572 17.53C167.212 17.378 166.812 17.302 166.372 17.302C165.924 17.302 165.52 17.378 165.16 17.53C164.8 17.682 164.492 17.894 164.236 18.166C163.988 18.438 163.796 18.758 163.66 19.126C163.532 19.494 163.468 19.898 163.468 20.338C163.468 20.746 163.532 21.134 163.66 21.502C163.796 21.862 163.988 22.186 164.236 22.474C164.492 22.754 164.8 22.974 165.16 23.134C165.52 23.294 165.924 23.374 166.372 23.374ZM172.639 24.73V15.91H174.343V24.73H172.639ZM177.991 24.73L175.303 20.914H177.211L179.983 24.73H177.991ZM173.839 21.802V20.422H176.071C176.383 20.422 176.651 20.358 176.875 20.23C177.107 20.102 177.287 19.922 177.415 19.69C177.543 19.458 177.607 19.194 177.607 18.898C177.607 18.594 177.543 18.326 177.415 18.094C177.287 17.862 177.107 17.682 176.875 17.554C176.651 17.426 176.383 17.362 176.071 17.362H173.839V15.91H175.891C176.595 15.91 177.203 16.014 177.715 16.222C178.235 16.43 178.635 16.746 178.915 17.17C179.195 17.594 179.335 18.126 179.335 18.766V18.958C179.335 19.606 179.191 20.138 178.903 20.554C178.623 20.97 178.227 21.282 177.715 21.49C177.203 21.698 176.595 21.802 175.891 21.802H173.839Z" fill="url(#paint3_linear_605_10521)"/>
<defs>
<linearGradient id="paint0_linear_605_10521" x1="10.1367" y1="-0.382337" x2="53.3829" y2="15.9177" gradientUnits="userSpaceOnUse">
<stop stop-color="white"/>
<stop offset="1" stop-color="white" stop-opacity="0"/>
</linearGradient>
<linearGradient id="paint1_linear_605_10521" x1="25.4575" y1="5.74609" x2="65.0734" y2="25.4237" gradientUnits="userSpaceOnUse">
<stop stop-color="white"/>
<stop offset="1" stop-color="white" stop-opacity="0"/>
</linearGradient>
<linearGradient id="paint2_linear_605_10521" x1="39.4078" y1="-0.382339" x2="78.1524" y2="12.6265" gradientUnits="userSpaceOnUse">
<stop stop-color="white"/>
<stop offset="1" stop-color="white" stop-opacity="0"/>
</linearGradient>
<linearGradient id="paint3_linear_605_10521" x1="123.429" y1="11" x2="139.171" y2="61.4233" gradientUnits="userSpaceOnUse">
<stop stop-color="white"/>
<stop offset="1" stop-color="#DBDBDB" stop-opacity="0"/>
</linearGradient>
<clipPath id="clip0_605_10521">
<rect width="48.2149" height="25.46" fill="white" transform="translate(0 0.27002)"/>
</clipPath>
</defs>
</svg>
